<?xml version="1.0" encoding="iso-8859-1"?>
<!-- Generator: Adobe Illustrator 16.0.0, SVG Export Plug-In . SVG Version: 6.00 Build 0)  -->
<!DOCTYPE svg PUBLIC "-//W3C//DTD SVG 1.1//EN" "http://www.w3.org/Graphics/SVG/1.1/DTD/svg11.dtd">
<svg version="1.1" id="Layer_1" xmlns="http://www.w3.org/2000/svg" xmlns:xlink="http://www.w3.org/1999/xlink" x="0px" y="0px"
	 width="163.152px" height="45.195px" viewBox="0 0 163.152 45.195" style="enable-background:new 0 0 163.152 45.195;"
	 xml:space="preserve">
<path style="fill:none;" d="M26.907,11.217c0.003,0.017,0.021,0.018,0.007,0.002c0.009-0.003,0.015-0.009,0.029-0.006
	c-0.016,0.019,0.019,0.022,0.005,0.026l0,0c0.022-0.005-0.021-0.007-0.005-0.027c-0.015-0.003-0.021,0.003-0.029,0.005
	C26.927,11.233,26.91,11.232,26.907,11.217c-0.013,0,0.006,0.012-0.008,0.013H26.9C26.906,11.226,26.896,11.219,26.907,11.217z"/>
<path style="fill:none;" d="M27.007,11.229c-0.003-0.01-0.011-0.01-0.02-0.007C26.996,11.219,27.003,11.219,27.007,11.229z"/>
<path style="fill:none;" d="M26.449,11.691L26.449,11.691c-0.001,0.006-0.001,0.013-0.001,0.02c-0.044-0.008-0.06-0.024-0.078-0.026
	c0,0,0,0.001,0,0.001c0.019,0.002,0.034,0.018,0.078,0.026C26.448,11.705,26.448,11.698,26.449,11.691z"/>
<path style="fill:none;" d="M27.007,11.229c-0.007,0.002-0.018,0.007-0.026,0.009C26.989,11.237,26.999,11.231,27.007,11.229z"/>
<path style="fill:none;" d="M25.911,12.327c-0.013,0.007-0.026,0.011-0.03-0.006C25.884,12.338,25.897,12.335,25.911,12.327z"/>
<path style="fill:none;" d="M26.944,11.505c-0.011,0.016-0.022-0.016-0.03,0.004C26.923,11.489,26.933,11.521,26.944,11.505z"/>
<path style="fill:none;" d="M26.821,11.488C26.821,11.489,26.821,11.489,26.821,11.488c0.024-0.002,0.043-0.011,0.053-0.03h-0.001
	C26.862,11.476,26.843,11.485,26.821,11.488z"/>
<polygon style="fill:none;" points="26.378,11.92 26.376,11.915 26.377,11.92 "/>
<path style="fill:none;" d="M26.376,11.915c-0.009,0.002-0.014,0.008-0.017,0.014c0.001,0,0.001-0.001,0.002-0.001
	C26.365,11.922,26.368,11.916,26.376,11.915z"/>
<path style="fill:none;" d="M25.984,12.165c-0.01,0.013-0.021,0.036-0.035,0.019C25.963,12.201,25.974,12.178,25.984,12.165z"/>
<path style="fill:none;" d="M25.939,12.308c-0.005-0.026-0.038,0.009-0.059,0.013C25.901,12.318,25.934,12.283,25.939,12.308z"/>
<path style="fill:none;" d="M26.098,12.451c-0.031-0.012-0.049,0.036-0.071-0.009C26.051,12.487,26.067,12.44,26.098,12.451z"/>
<path style="fill:none;" d="M26.242,11.975c-0.022,0.018-0.06,0.02-0.066,0.059c0,0,0,0,0.001,0
	C26.183,11.997,26.22,11.994,26.242,11.975z"/>
<path style="fill:none;" d="M26.334,11.932c0-0.008-0.003-0.015,0.014-0.02C26.331,11.918,26.334,11.925,26.334,11.932
	C26.333,11.932,26.333,11.932,26.334,11.932z"/>
<path style="fill:none;" d="M26.879,11.451c-0.001,0.003-0.003,0.004-0.004,0.007h0.001c0.002-0.006,0-0.015,0.008-0.014
	C26.883,11.447,26.881,11.449,26.879,11.451z"/>
<path style="fill:none;" d="M28.449,11.759c0.032-0.046,0.082-0.102,0.079-0.175C28.531,11.656,28.481,11.713,28.449,11.759z"/>
<path style="fill:none;" d="M26.873,11.458c-0.004-0.007-0.011-0.005-0.018-0.004c0,0,0,0,0,0
	C26.862,11.453,26.87,11.45,26.873,11.458L26.873,11.458z"/>
<path style="fill:none;" d="M28.149,11.465c0,0,0,0.001,0,0.002c0.003,0.002,0.01,0.004,0.017,0.007
	C28.159,11.47,28.151,11.468,28.149,11.465z"/>
<path style="fill:none;" d="M28.595,11.234C28.595,11.234,28.596,11.233,28.595,11.234c-0.009,0.017-0.037,0.012-0.04,0.038
	c0.001,0,0.001,0,0.002,0C28.56,11.247,28.587,11.251,28.595,11.234z"/>
<path style="fill:none;" d="M28.569,11.27c0.006-0.003,0.009-0.004,0.007,0.011c0,0,0,0,0.001,0
	C28.579,11.265,28.575,11.266,28.569,11.27z"/>
<path style="fill:none;" d="M26.314,11.742c0.001,0,0.003,0.002,0.003-0.001c-0.003-0.021-0.02-0.03-0.033-0.045
	c-0.001,0,0,0.003-0.002,0.003C26.295,11.713,26.31,11.723,26.314,11.742z"/>
<path style="fill:none;" d="M28.166,11.487C28.166,11.488,28.167,11.487,28.166,11.487c0.015-0.004,0.01-0.009,0.002-0.012
	C28.175,11.478,28.178,11.482,28.166,11.487z"/>
<path style="fill:none;" d="M27.397,11.396C27.397,11.396,27.397,11.397,27.397,11.396c0,0.021-0.019,0.021-0.019,0.041
	c0.009,0.001,0.015,0.007,0.021,0.012c0.001,0.003-0.002,0.004-0.001,0.008c-0.015,0-0.02,0.005-0.021,0.009c0,0,0,0,0,0
	c0.002-0.005,0.007-0.01,0.022-0.01c-0.001-0.004,0.002-0.005,0.001-0.008c-0.007-0.005-0.013-0.011-0.021-0.012
	C27.38,11.417,27.398,11.417,27.397,11.396z"/>
<path style="fill:none;" d="M27.781,11.362c-0.005-0.007-0.008-0.012,0.001-0.012l0,0C27.776,11.351,27.777,11.355,27.781,11.362
	c-0.009,0.002-0.016,0.006-0.022,0.011c-0.024,0-0.043-0.008-0.045-0.027c-0.001,0-0.002,0-0.004,0
	c-0.001,0.022,0.022,0.029,0.049,0.029C27.765,11.369,27.773,11.365,27.781,11.362z"/>
<path style="fill:none;" d="M27.428,11.274c-0.024-0.003-0.026,0.018-0.032,0.032c0,0,0,0,0.001,0
	C27.403,11.291,27.405,11.271,27.428,11.274z"/>
<path style="fill:none;" d="M27.944,11.269c-0.001-0.004-0.002-0.006-0.005-0.009c-0.002,0-0.005-0.008-0.005-0.004
	C27.934,11.259,27.94,11.263,27.944,11.269z"/>
<path style="fill:none;" d="M27.896,11.253c0.013,0.014,0.047-0.017,0.073-0.015c0,0,0-0.002,0-0.002
	c-0.026-0.002-0.061,0.029-0.073,0.015c-0.023-0.005-0.005,0.035-0.031,0.024c0.001,0.001,0.003-0.001,0.005,0
	C27.883,11.272,27.876,11.248,27.896,11.253z"/>
<path style="fill:none;" d="M28.039,11.466c-0.032,0.031-0.064-0.004-0.116,0.013C27.975,11.462,28.007,11.497,28.039,11.466z"/>
<path style="fill:none;" d="M28.038,11.49c0,0.001-0.002,0.001-0.002,0.002c0.045,0.033,0.09-0.025,0.096-0.006c0,0,0,0,0-0.001
	C28.126,11.467,28.083,11.521,28.038,11.49z"/>
<path style="fill:none;" d="M94.488,31.576c-0.236-0.083-0.512-0.126-0.828-0.126c-0.311,0-0.544,0.026-0.703,0.061v3.669
	c0.152,0.021,0.372,0.026,0.605,0.026c0.322,0,0.606-0.045,0.853-0.131c0.736-0.26,1.123-0.896,1.123-1.835c0-0.001,0-0.001,0-0.001
	C95.543,32.418,95.195,31.822,94.488,31.576z"/>
<path style="fill:none;" d="M84.362,10.77c-0.651-0.819-1.46-1.45-2.425-1.894c-0.968-0.442-1.986-0.666-3.062-0.666h0h0
	c-1.678,0-3.146,0.47-4.408,1.4c-1.074,0.785-1.849,1.854-2.329,3.206c-0.48,1.354-0.722,2.8-0.722,4.344
	c0,2.437,0.63,4.371,1.893,5.808c1.382,1.597,3.153,2.396,5.315,2.396h0h0c1.2,0,2.305-0.281,3.316-0.842
	c1.009-0.56,1.841-1.319,2.494-2.273c0.655-0.957,1.096-2.038,1.324-3.237c0.169-0.765,0.253-1.56,0.255-2.386
	c0-1.219-0.116-2.297-0.35-3.226C85.434,12.473,85,11.597,84.362,10.77z"/>
<path style="fill:none;" d="M114.206,31.415c-0.873,0-1.362,0.706-1.471,1.56c0,0.001,0,0.001,0,0.001
	c-0.016,0.122-0.023,0.246-0.023,0.372c0,0.001,0,0.001,0,0.001c0,0.999,0.538,1.887,1.487,1.887s1.485-0.873,1.485-1.926v-0.001
	v-0.001C115.684,32.377,115.203,31.415,114.206,31.415z"/>
<path style="fill:none;" d="M146.448,11.985c-0.311-0.682-0.724-1.24-1.233-1.67c-0.824-0.684-1.699-1.116-2.627-1.297
	c-0.925-0.183-2.112-0.273-3.563-0.273c-0.469,0-1.04,0.021-1.711,0.058c-0.67,0.037-1.186,0.061-1.54,0.074
	c-0.115,2.57-0.171,4.382-0.171,5.435v0.001v7.216v0.001l0.091,3.05c0.314,0.017,0.77,0.047,1.36,0.096
	c0.59,0.052,1.083,0.077,1.479,0.077c1.214,0,2.218-0.058,3.009-0.173c0.705-0.127,1.337-0.331,1.902-0.613
	c0.751-0.361,1.349-0.78,1.792-1.259c0.442-0.475,0.831-1.104,1.167-1.882c0.334-0.666,0.568-1.421,0.72-2.249
	c0.124-0.682,0.196-1.411,0.196-2.202c0-0.698-0.067-1.432-0.202-2.204C146.985,13.398,146.761,12.673,146.448,11.985z"/>
<polygon style="fill:none;" points="118.542,17.613 121.713,17.613 124.351,17.613 121.421,10.85 "/>
<path style="fill:none;" d="M25.847,12.628c0.015,0.01,0.027-0.025,0.057-0.03C25.875,12.602,25.861,12.637,25.847,12.628z"/>
<path d="M26.964,11.227c0.001,0.012,0.008,0.013,0.017,0.011s0.019-0.007,0.026-0.009c-0.003-0.01-0.011-0.01-0.02-0.007
	C26.979,11.224,26.97,11.229,26.964,11.227z"/>
<polygon points="26.909,11.324 26.905,11.327 26.907,11.326 "/>
<path d="M26.912,11.325c0.025-0.005,0.055-0.005,0.074-0.014c-0.02-0.001-0.062-0.006-0.075,0.012
	C26.912,11.324,26.911,11.324,26.912,11.325z"/>
<path d="M27.433,11.314c0.001-0.011,0.02-0.005,0.016-0.026c-0.01-0.014-0.024,0.015-0.021-0.014
	c-0.024-0.003-0.026,0.017-0.031,0.032C27.413,11.305,27.411,11.319,27.433,11.314z"/>
<path d="M27.519,11.505c0.032,0.001,0.032-0.031,0.06-0.038c-0.001-0.012-0.021-0.004-0.021-0.016
	c-0.003,0.019-0.007,0.022-0.036,0.011c-0.002,0.003-0.005,0.004-0.006,0.007c0.001,0.01,0.001,0.021,0.001,0.03
	C27.518,11.501,27.52,11.501,27.519,11.505z"/>
<path d="M26.914,11.219c0.014,0.016-0.004,0.015-0.007-0.002c-0.011,0.002-0.001,0.009-0.007,0.013
	c0.004,0.005,0.019,0.009,0.035,0.002c0.005,0.001,0.006,0.007,0.013,0.008c0.014-0.004-0.021-0.008-0.005-0.026
	C26.928,11.21,26.923,11.216,26.914,11.219z"/>
<path d="M26.958,11.505c-0.026,0-0.044-0.027-0.078-0.02c-0.006,0.05,0.034,0.021,0.056,0.046c0.029-0.013-0.022-0.012-0.021-0.022
	c0.008-0.02,0.02,0.012,0.03-0.004c0.011,0.016,0.028,0.023,0.055,0.023c0.021-0.016,0.039-0.031,0.075-0.028
	c0.012-0.021,0.001-0.025-0.011-0.042c-0.019,0.017-0.015-0.001-0.044,0.012c-0.015-0.005-0.017-0.016-0.013-0.03
	C26.967,11.451,26.989,11.469,26.958,11.505z"/>
<path d="M27.4,11.449c-0.007-0.005-0.013-0.011-0.021-0.012c0-0.021,0.019-0.021,0.018-0.041c-0.012-0.003-0.017-0.001-0.021,0.003
	c0.001,0.005,0.002,0.007,0.005,0.013c-0.004,0.006-0.006,0.015-0.01,0.021c0.003,0.01,0.004,0.024,0.007,0.033
	c0.002-0.004,0.006-0.009,0.021-0.009C27.398,11.453,27.401,11.452,27.4,11.449z"/>
<path d="M27.665,11.264c-0.02,0.015-0.05,0.021-0.061,0.05C27.632,11.296,27.674,11.302,27.665,11.264z"/>
<path d="M26.585,11.589c-0.015-0.02-0.03,0.023-0.045,0.031C26.554,11.639,26.572,11.597,26.585,11.589z"/>
<path d="M26.377,11.92c0-0.002-0.001-0.002-0.001-0.005c-0.007,0.001-0.011,0.007-0.014,0.013
	C26.367,11.926,26.372,11.922,26.377,11.92z"/>
<path d="M26.449,11.691c-0.036,0.012-0.025-0.015-0.078-0.019c0.004,0.006,0.005,0.011-0.001,0.012
	c0.019,0.002,0.034,0.019,0.078,0.026C26.448,11.704,26.448,11.698,26.449,11.691z"/>
<path d="M26.361,11.974C26.349,11.98,26.348,11.99,26.35,12c0.005-0.008,0.011-0.015,0.016-0.021
	C26.365,11.978,26.364,11.977,26.361,11.974z"/>
<path d="M26.884,11.325c0.011-0.021-0.037-0.012-0.056-0.019C26.814,11.338,26.879,11.323,26.884,11.325z"/>
<path d="M26.855,11.454c-0.007,0.005-0.013,0.015-0.026,0.012c0.005,0.01,0,0.016-0.008,0.022c0.022-0.003,0.041-0.012,0.052-0.03
	C26.87,11.45,26.862,11.453,26.855,11.454z"/>
<polygon points="26.874,11.458 26.875,11.458 26.879,11.451 "/>
<polygon points="26.873,11.458 26.874,11.458 26.873,11.458 "/>
<path d="M26.68,11.509c-0.021,0.006-0.038,0.014-0.057,0.034c0.005,0.012,0.021,0.007,0.04,0.005
	C26.669,11.535,26.676,11.522,26.68,11.509z"/>
<path d="M27.87,11.275c0.019,0.012,0.053-0.029,0.067,0.006c0.01-0.002,0.009-0.007,0.006-0.012c-0.003-0.005-0.009-0.01-0.01-0.013
	c0-0.004,0.002,0.004,0.005,0.004c-0.002-0.002-0.004-0.005-0.005-0.006c-0.002-0.013,0.026,0.001,0.019,0.016
	c0.01-0.001,0.015-0.027,0.015,0.001c0.017-0.001,0.007-0.027,0.003-0.032c-0.026-0.002-0.061,0.028-0.073,0.015
	C27.876,11.248,27.883,11.272,27.87,11.275z"/>
<path d="M29.034,12.12c-0.034,0.011-0.014,0.043-0.026,0.074c0.014,0.003,0.017-0.006,0.008-0.007
	C29.033,12.16,29.043,12.156,29.034,12.12z"/>
<path d="M28.935,12.502c0.008-0.001,0.014,0.001,0.014,0.009c0.022-0.028-0.005-0.082,0.023-0.124
	c-0.009,0.004-0.015,0.008-0.016,0.019c-0.013-0.034-0.04-0.057-0.036-0.105C28.859,12.363,28.974,12.433,28.935,12.502z"/>
<path d="M28.602,11.233c0.007,0.01,0.005,0.018-0.002,0.028c0.01-0.011,0.021-0.018,0.03-0.026
	C28.631,11.217,28.607,11.23,28.602,11.233z"/>
<path d="M28.569,11.27c0.006-0.003,0.01-0.004,0.008,0.011c0.012-0.002,0.015-0.012,0.022-0.019
	c-0.012-0.009,0.009-0.019-0.004-0.027c-0.009,0.017-0.035,0.013-0.038,0.038C28.562,11.272,28.566,11.271,28.569,11.27z"/>
<path d="M28.472,11.635c0.007,0.048,0.001,0.09-0.023,0.123c0.032-0.046,0.082-0.103,0.079-0.175
	C28.497,11.589,28.509,11.637,28.472,11.635z"/>
<path d="M26.268,11.723c0.007,0,0.008,0.006,0.014,0.009c0.011-0.036,0.011,0.017,0.014,0.015c0.009-0.013,0.015-0.004,0.018-0.005
	c-0.004-0.019-0.019-0.029-0.032-0.043C26.273,11.702,26.268,11.71,26.268,11.723z"/>
<path d="M29.087,12.179c-0.02-0.002-0.018,0.02-0.036,0.018c0.005,0.012,0.022,0.013,0.034,0.017
	C29.083,12.191,29.101,12.192,29.087,12.179z"/>
<path d="M27.781,11.361c-0.004-0.006-0.005-0.01,0.001-0.011c-0.02-0.011-0.043-0.01-0.068-0.005
	c0.002,0.019,0.021,0.027,0.045,0.027C27.765,11.368,27.772,11.364,27.781,11.361z"/>
<path d="M25.67,12.97c-0.006-0.024,0.003-0.014,0.012-0.004c0.002-0.006,0.003-0.011,0.004-0.018
	c-0.011-0.004-0.022-0.006-0.033-0.009c-0.009,0.007-0.007,0.018,0.001,0.03C25.66,12.967,25.664,12.971,25.67,12.97z"/>
<path d="M28.039,11.466c-0.032,0.009-0.054-0.047-0.119-0.03c-0.003,0.017-0.004,0.034,0.003,0.043
	C27.974,11.462,28.007,11.497,28.039,11.466z"/>
<path d="M28.132,11.485c0.022-0.022-0.025-0.037-0.024-0.057c-0.037,0.006-0.061,0.025-0.069,0.062
	C28.083,11.521,28.126,11.467,28.132,11.485z"/>
<path d="M28.141,11.442c-0.002,0.013,0.003,0.017,0.007,0.022C28.144,11.449,28.168,11.444,28.141,11.442z"/>
<path d="M26.333,11.932c0.001-0.008-0.002-0.015,0.015-0.02c-0.017-0.002-0.014,0.014-0.02,0.02
	C26.329,11.932,26.331,11.932,26.333,11.932z"/>
<path d="M28.175,11.669c0.022-0.009,0.034-0.032,0.026-0.055C28.17,11.606,28.179,11.646,28.175,11.669z"/>
<path d="M28.349,11.744c0.003-0.034,0.011-0.034,0.005-0.061C28.331,11.684,28.319,11.74,28.349,11.744z"/>
<path d="M28.297,11.684c-0.006,0.004-0.012,0.006-0.021,0.006c0.007,0.021,0.012,0.021,0.003,0.042
	c-0.015-0.021-0.007-0.031-0.032-0.051c-0.018,0.012-0.019,0.035-0.012,0.054c0.02,0.002,0.04,0.003,0.058,0.004
	C28.297,11.715,28.306,11.707,28.297,11.684z"/>
<path d="M28.37,11.467c0.02-0.033,0.043-0.066,0.045-0.121C28.383,11.363,28.377,11.446,28.37,11.467z"/>
<path d="M28.166,11.473c-0.006-0.002-0.013-0.005-0.017-0.007c0.002,0.006,0.003,0.013,0.004,0.019
	c0.005-0.003,0.011-0.004,0.012,0.002c0.013-0.005,0.009-0.009,0.002-0.012C28.167,11.474,28.167,11.474,28.166,11.473z"/>
<path d="M26.644,19.721c0.063,0.017,0.136,0.027,0.197,0.033l-0.519-0.166C26.437,19.646,26.541,19.687,26.644,19.721z"/>
<path d="M25.84,12.687c-0.008-0.002-0.009,0.006-0.011,0.013c0.004-0.002,0.007-0.005,0.011-0.006
	C25.84,12.691,25.84,12.688,25.84,12.687z"/>
<polygon points="25.635,13.172 25.632,13.177 25.634,13.177 "/>
<path d="M26.224,12.049c0.001-0.021,0.028-0.031,0.045-0.044c-0.007-0.013-0.016-0.023-0.027-0.029
	c-0.022,0.019-0.059,0.021-0.065,0.059C26.194,12.032,26.209,12.035,26.224,12.049z"/>
<path d="M25.958,12.296c0.018-0.021,0.045-0.034,0.059-0.057C25.997,12.251,25.948,12.27,25.958,12.296z"/>
<path d="M26.098,12.451c0.018-0.026-0.024,0.004-0.029-0.007c-0.004-0.02,0.021-0.001,0.021-0.02
	c0.02,0.008,0.037,0.007,0.062-0.008l0.001-0.001c0.007-0.027,0.017-0.058,0.027-0.088c-0.006-0.002-0.011-0.004-0.017-0.006
	c-0.005,0.022-0.012,0.006-0.031,0.032c-0.012,0.004-0.02-0.004-0.026-0.017c-0.024,0.028,0.004,0.033-0.002,0.079
	c-0.023,0.016-0.054,0-0.076,0.025C26.05,12.487,26.067,12.439,26.098,12.451z"/>
<path d="M26.145,12.03c0.001,0.008-0.001,0.011-0.003,0.014c0.006-0.003,0.012-0.006,0.018-0.009
	C26.154,12.034,26.148,12.034,26.145,12.03z"/>
<path d="M26.116,12.058c-0.003-0.009-0.004-0.017-0.016-0.017c0,0.005-0.002,0.01-0.009,0.006c0.008,0.006,0.009,0.012,0.012,0.019
	C26.107,12.063,26.111,12.059,26.116,12.058z"/>
<path d="M25.984,12.165c-0.001,0-0.001,0-0.002,0.001c0.001-0.002,0-0.001,0-0.003c-0.013-0.006-0.021,0.017-0.033,0.021
	C25.963,12.201,25.974,12.177,25.984,12.165z"/>
<path d="M26.006,12.422c-0.024-0.01-0.028,0.024-0.061,0.051c0.008,0.002,0.014,0.009,0.02,0.019
	C25.995,12.473,26.009,12.449,26.006,12.422z"/>
<path d="M25.897,12.545c-0.029,0.023-0.046,0.043-0.05,0.083c0.014,0.01,0.027-0.025,0.057-0.03
	C25.855,12.595,25.914,12.567,25.897,12.545z"/>
<path d="M25.939,12.308c-0.005-0.025-0.038,0.01-0.059,0.013c0.004,0.017,0.017,0.013,0.03,0.006
	C25.924,12.32,25.937,12.308,25.939,12.308z"/>
<path d="M35.804,31.752c-0.204,0.281-0.422,0.555-0.646,0.818c-0.038,0.046-0.073,0.095-0.111,0.138
	c-0.062,0.073-0.129,0.145-0.192,0.215c-0.237,0.267-0.479,0.527-0.731,0.775l0.006,0.004c-3.848,3.864-9.468,5.839-15.237,4.782
	c-1.715-0.313-3.326-0.872-4.805-1.635l-2.329,2.027c2.826,1.642,6.093,2.617,9.591,2.694c6.172,0.136,11.741-2.546,15.504-6.86
	l6.621,2.457l-6.305-4.453L35.804,31.752z"/>
<path d="M31.927,7.583L31.887,7.64c5.261,3.734,8.183,10.297,6.947,17.063c-0.334,1.829-0.948,3.532-1.789,5.083l1.857,2.13
	c1.749-2.89,2.792-6.261,2.872-9.884c0.141-6.243-2.607-11.871-7.011-15.635L37.281,0L31.927,7.583z"/>
<path d="M7.44,12.308c0.05-0.085,0.106-0.16,0.16-0.244c0.362-0.54,0.752-1.063,1.171-1.559l-0.059-0.021
	c3.822-4.806,9.912-6.901,16.34-5.727c1.737,0.318,3.364,0.888,4.853,1.663l2.225-1.937c-2.894-1.75-6.267-2.796-9.893-2.876
	C15.631,1.459,9.71,4.542,5.965,9.402L0,7.055l7.432,5.248L7.44,12.308z"/>
<path d="M12.14,35.626c-0.633-0.438-1.233-0.916-1.802-1.431l-0.007,0.021c-4.191-3.854-6.384-9.69-5.224-15.675
	c0.291-1.497,0.723-2.881,1.273-4.157l-2.104-2.415c-1.502,2.729-2.389,5.849-2.464,9.179C1.67,27.564,4.576,33.335,9.2,37.096
	l-3.813,8.1l5.054-7.159l1.679-2.379L12.14,35.626z"/>
<polygon points="28.975,11.964 28.975,11.975 28.98,11.97 "/>
<path d="M31.594,17.788c-0.121-0.124-0.322-0.124-0.448-0.009l-2.073,1.937l-0.986-0.313c-0.007-0.009-0.016-0.014-0.025-0.009
	l-2.064-0.66c-0.194-0.063-0.404,0.039-0.466,0.226c-0.01,0.033-0.01,0.065-0.012,0.097c-0.155-0.098-0.37-0.198-0.705-0.31
	c0.017-0.03,0.034-0.059,0.052-0.086c0.062-0.089,0.118-0.155,0.169-0.188c0.729-1.417,1.469-1.257,1.616-2.188
	c0.242-0.554-0.705-2.567,0.356-1.497c0.462,0.463,0.922-0.177,1.166-0.625c0.197,0.189,0.249,0.121,0.245,0.073
	c-0.073-0.167-0.008-0.437,0.013-0.507c0.354-0.282,0.176-0.191,0.428-0.336c0.044-0.025,0.06-0.076,0.063-0.129
	c0.021,0.002,0.038,0.001,0.049-0.011c0.018,0.031,0.037,0.034,0.093,0.034c-0.004-0.021,0.007-0.024,0.008-0.041
	c-0.02,0.005-0.012-0.021-0.034-0.018c0.004-0.063,0.08-0.104,0.083-0.161c0.071-0.008,0.057-0.262-0.01-0.291
	c0.025-0.004,0.019-0.029,0.053-0.038c-0.018-0.018,0.016-0.025,0.018-0.047c0.008,0.01,0.024,0.011,0.043,0.011
	c-0.011-0.035,0.02-0.035,0.041-0.066c-0.014,0.003-0.042,0.041-0.037-0.004c-0.021-0.001-0.036,0.005-0.044,0.019
	c-0.009-0.001-0.003-0.008,0.001-0.008c-0.001-0.012-0.024-0.005-0.027-0.016c0-0.011-0.002-0.025,0.009-0.026
	c-0.011-0.017-0.019,0.003-0.036-0.012c0.015-0.026,0-0.029-0.019-0.033c-0.001-0.018,0.014-0.016,0.009-0.035
	c-0.012-0.003-0.015,0.006-0.007,0.006c-0.009,0.021-0.028-0.018-0.023,0.021c-0.022,0.005-0.013-0.019-0.026-0.022
	c-0.025-0.012-0.006,0.022-0.023,0.019c0.007,0.015,0.037,0.009,0.049,0.019c0.006,0.021-0.02,0.012-0.023,0.024
	c-0.018,0.004,0.008-0.029-0.021-0.021c0.01,0.021,0.004,0.041-0.017,0.048c-0.007-0.024-0.001-0.113,0.031-0.123
	c-0.025,0.001-0.026-0.021-0.032-0.05c-0.016,0.002-0.018,0.009-0.01,0.02c-0.005-0.003-0.01-0.008-0.021-0.009
	c0.018-0.029-0.007-0.057,0.013-0.096c-0.031-0.005-0.006-0.049-0.021-0.078c0.015-0.007,0.014,0.003,0.001-0.021
	c0.002-0.006,0.008-0.008,0.009-0.015c0.006,0.001,0.004,0.01,0.006,0.015c0.024-0.01-0.017-0.021-0.004-0.041
	c0.021,0.015,0.02,0.007,0.042,0.017c-0.031,0.019-0.004,0.087,0.007,0.091c0,0.009-0.008,0.006-0.015,0.006
	c0.013,0.024,0.036,0.023,0.019,0.06c0.024-0.014,0.05-0.025,0.049-0.067c-0.053-0.028-0.012-0.074-0.053-0.094
	c0.028-0.012,0.026,0.015,0.049,0.03c0.029-0.006,0.025-0.051,0.035-0.08c-0.016,0.029-0.018-0.021-0.023,0.012
	c-0.023-0.008,0.001-0.016-0.012-0.027c-0.024,0.006-0.026-0.008-0.038,0.018c-0.025-0.02,0.005-0.021,0.004-0.048
	c-0.012,0.013-0.025,0-0.021-0.023c0.03-0.016,0.006-0.006,0.025-0.039c-0.032-0.006-0.018,0.021-0.043,0.003
	c-0.008-0.008-0.03-0.037-0.012-0.043c0.002-0.006-0.003-0.006-0.007-0.006C29,12.02,28.999,12.017,29,12.014
	c-0.016,0.004-0.021,0.033-0.011,0.047c-0.009,0-0.042-0.025-0.05,0.003c-0.007-0.002-0.007-0.006-0.015-0.007
	c0.01-0.028,0.042-0.055,0.051-0.082c-0.014,0.012-0.014,0.018-0.033,0.035c-0.003-0.02-0.002-0.055-0.017-0.078
	c-0.018,0.019-0.047,0.027-0.048,0.064c-0.008,0-0.014,0-0.021-0.002c0.034-0.032-0.004-0.106,0.036-0.107
	c-0.011-0.012-0.002-0.037-0.025-0.037c0.001-0.009,0.013-0.005,0.022-0.005c-0.011-0.023-0.039-0.028-0.039-0.06
	c-0.018-0.001-0.032-0.002-0.051-0.003c-0.001,0.016-0.014,0.02-0.01,0.041c-0.024-0.016-0.001-0.026,0.004-0.05
	c-0.032,0.016-0.058,0.036-0.077,0.065c-0.012-0.041,0.005-0.065-0.008-0.105c-0.026-0.008-0.025-0.011-0.055-0.031
	c-0.035,0.068-0.063,0.09-0.054,0.148h-0.022c0.02-0.035-0.008-0.058,0.021-0.077c0.002-0.016-0.021-0.009-0.021-0.021
	c-0.002-0.005,0.003-0.007,0.007-0.005c-0.005-0.018-0.021,0.021-0.037,0.019c0.005-0.017-0.03-0.068-0.054-0.061
	c0.026-0.063,0.132-0.115,0.137-0.198c0.027,0.029,0.051-0.049,0.069-0.072c-0.016-0.006-0.008-0.045-0.022-0.072
	c-0.052-0.011-0.073-0.006-0.09,0.034c-0.024-0.015-0.024,0.004-0.044,0.012c-0.018-0.018,0.028-0.046,0.056-0.058
	c0.025-0.071,0.029-0.091,0.047-0.164c-0.025,0.017-0.038,0.017-0.046,0.04c-0.039-0.053-0.07,0.041-0.131,0.031
	c-0.041,0.093-0.188,0.065-0.267,0.098c-0.012-0.018,0.006-0.016-0.014-0.021c-0.01,0.004-0.015,0.016-0.017,0.025
	c-0.036-0.046-0.128,0.023-0.157-0.005c-0.031,0.011-0.046,0.039-0.088,0.037c-0.017,0.022-0.031,0.04-0.033,0.062
	c-0.013-0.015-0.019-0.004-0.036-0.004c0.004-0.052,0.002-0.11,0.053-0.137c0.024,0.027,0.064,0.002,0.108,0.008
	c0.007-0.014,0.021-0.018,0.022-0.039c-0.022-0.017-0.03-0.013-0.057-0.004c-0.001-0.021-0.016-0.053,0.005-0.06
	c0.039,0.048,0.106-0.019,0.118-0.049c-0.004-0.024-0.017-0.01-0.021,0.005c-0.014-0.021,0.001-0.039-0.026-0.052
	c0.012-0.011,0.043-0.003,0.045-0.022c0.034,0.03,0.067,0.002,0.089-0.037c0.022,0.007,0.009,0.021,0.005,0.036
	c0.036-0.018,0.046-0.024,0.057-0.073c-0.028-0.005-0.05,0.025-0.103,0.015c-0.004,0.015,0.004,0.02,0.005,0.026
	c-0.018-0.006-0.074-0.011-0.078-0.012c-0.022-0.029,0.012-0.036-0.009-0.07c-0.013,0.025-0.017,0.01-0.045,0.018
	c0.008,0.011,0.027,0.013,0.035,0.022c-0.003,0.008-0.014,0.005-0.022,0.005c0.007-0.017-0.033-0.009-0.033-0.036
	c-0.014,0.017-0.013,0.004-0.029,0.013c0.003,0.053-0.037,0.058-0.065,0.078c0.03,0.064-0.146,0.057-0.207,0.075
	c-0.01,0.004-0.017,0.025-0.021,0.027c-0.006-0.001-0.016-0.023-0.021-0.022c-0.017,0.003-0.053,0.029-0.082,0.028
	c0.003,0.048-0.136,0.062-0.166,0.022c-0.013,0.013-0.038,0.013-0.064,0.009c0.004,0.02-0.009,0.022-0.023,0.023l-0.001-0.001
	c0,0,0,0-0.001,0.001c-0.019,0.001-0.044-0.004-0.058,0.013c-0.031-0.107-0.231,0.005-0.278-0.096
	c-0.044,0.021-0.091-0.007-0.121-0.028c-0.029,0.014-0.039,0.004-0.063-0.013c-0.001,0.007-0.005,0.012-0.011,0.013
	c0.036,0.042,0.037,0.041,0.06,0.08c-0.059,0.035-0.154,0.021-0.229,0.005c0.01-0.003,0.002-0.027,0.017-0.027
	c0.002-0.02-0.028-0.015-0.05-0.017c-0.004,0.015,0.034,0.041-0.003,0.041c0.039,0.017,0.056,0.07,0.123,0.092
	c0,0.012-0.009,0.013-0.009,0.025c-0.046,0.015-0.083-0.036-0.12-0.028c0.007,0.021,0.005,0.053,0.039,0.053
	c-0.011,0.032,0.067,0.089,0.028,0.127c-0.041-0.039-0.063-0.026-0.087-0.083c-0.003,0.009-0.003,0.027-0.019,0.041
	c-0.011,0.001-0.012-0.007-0.013-0.015c-0.061,0.061-0.176-0.048-0.219,0.061c0.034-0.005,0.037,0.012,0.041,0.029
	c-0.028-0.004-0.031,0.022-0.066,0.009c-0.021,0.014,0.004,0.06-0.003,0.057c0.009,0.008,0.03-0.005,0.043-0.003
	c0.01,0.001,0.011,0.028,0.015,0c0.018,0.033,0.028,0.032,0.029,0.079c-0.006-0.001-0.003-0.011-0.005-0.015
	c-0.038,0.004-0.057,0.03-0.083,0.049c0.014,0.015,0.03,0.024,0.033,0.045c0,0.003-0.002,0.001-0.003,0.001
	c-0.003,0.001-0.009-0.008-0.018,0.005c-0.003,0.002-0.003-0.051-0.014-0.015c-0.006-0.003-0.007-0.009-0.014-0.009
	c0-0.014,0.005-0.021,0.014-0.024c0.001,0,0-0.003,0.002-0.003c-0.001-0.009-0.013-0.009-0.013-0.001
	c-0.016-0.002,0.01-0.016-0.005-0.027c0.013,0.001,0.014,0.011,0.026,0.01c-0.003-0.007-0.007-0.012-0.005-0.021
	c-0.047-0.006-0.059,0.046-0.073,0.016c-0.003,0.017,0.004,0.022,0.02,0.022c0,0.014-0.01,0.015-0.009,0.028
	c-0.052-0.014-0.127-0.066-0.175-0.063c0.019,0.063,0.056,0.031,0.059,0.097c-0.026-0.018-0.048,0.057-0.075,0.036
	c-0.021,0.054,0.032,0.062,0.021,0.099c0.016-0.001,0.04-0.014,0.043,0.01c0.015-0.011,0.021-0.013,0.043-0.004
	c-0.001-0.006-0.009-0.007-0.007-0.016c0.008,0.005,0.014,0.001,0.015-0.005c-0.003,0.023,0.035,0.005,0.057,0.018
	c0,0.036-0.057,0.007-0.054,0.045c-0.013-0.005-0.004-0.027-0.027-0.021c-0.006,0.021,0.005,0.023,0.004,0.042
	c0.017-0.021,0.036,0.001,0.066-0.01c-0.03,0.021,0.016,0.018-0.02,0.048c-0.005-0.028-0.021-0.008-0.018-0.036
	c-0.02-0.003-0.026,0.01-0.016,0.02c-0.007-0.015-0.032-0.011-0.042-0.023c-0.012,0.005-0.016,0.016-0.016,0.026
	c-0.027-0.018-0.023,0.013-0.052,0.01c0.009-0.009,0.021-0.012,0.031-0.019c0-0.027-0.023,0.005-0.028-0.016
	c-0.015,0.025-0.026,0.025-0.052,0.011c-0.021-0.014,0.018,0.012,0.02,0.021c-0.014,0.005-0.033,0.007-0.05,0.012
	c0.003,0.005,0.006,0.013,0.004,0.021c-0.019-0.004-0.038-0.012-0.062-0.023c-0.022,0.009,0.009,0.034-0.011,0.04
	c0.028,0.016,0.028,0.015,0.056,0.03c0-0.016,0.017-0.014,0.022-0.024c0.002,0.007,0,0.033,0.027,0.016
	c0,0.012-0.006,0.017-0.014,0.021c0.011,0.005,0.026-0.004,0.051-0.012c-0.028,0.025-0.016,0.035-0.052,0.025
	c-0.004,0.011,0.005,0.012,0.004,0.02c-0.007,0-0.014-0.001-0.021-0.001c-0.016-0.005,0.008-0.01-0.008-0.021
	c-0.012,0.009-0.015,0.006-0.012-0.016c-0.021,0-0.005,0.039-0.03,0.032c0.004,0.009,0.005,0.017,0.004,0.022
	c-0.003,0.004-0.007,0.007-0.011,0.009c-0.002-0.013-0.012-0.019-0.03-0.019c0.017-0.01-0.009-0.019,0.008-0.021
	c-0.009-0.003-0.041-0.015-0.049-0.018c-0.014,0.007-0.009,0.036-0.018,0.047c0.021-0.03,0.023,0.009,0.029,0.021
	c-0.008,0-0.017,0.002-0.024,0.001c-0.015,0.029-0.029,0.025-0.06,0.025c0.006,0.006,0.006,0.011,0.003,0.016
	c0.052,0.016,0.052,0.014,0.092,0.035v0.001c-0.03,0.062-0.117,0.1-0.188,0.126c0.006-0.009-0.012-0.023-0.001-0.031
	c-0.011-0.016-0.033,0.005-0.052,0.013c0.004,0.016,0.052,0.017,0.021,0.037c0.042-0.009,0.088,0.029,0.155,0.013
	c0.006,0.009-0.001,0.017,0.007,0.027c-0.031,0.035-0.09,0.014-0.115,0.039c0.018,0.015,0.032,0.041,0.061,0.021
	c0.01,0.036,0.105,0.041,0.093,0.092c-0.053-0.01-0.064,0.013-0.118-0.021c0.002,0.011,0.014,0.023,0.011,0.043
	c-0.011,0.008-0.018,0.002-0.021-0.004c-0.016,0.083-0.174,0.055-0.147,0.167c0.023-0.022,0.039-0.01,0.051,0.004
	c-0.026,0.011-0.013,0.034-0.048,0.042c-0.014,0.023,0.035,0.048,0.027,0.048c0.013,0.002,0.021-0.02,0.033-0.026
	c0.009-0.003,0.027,0.018,0.014-0.008c0.032,0.021,0.043,0.015,0.07,0.05c-0.006,0.003-0.01-0.006-0.014-0.01
	c-0.029,0.025-0.03,0.058-0.04,0.087c0.011,0.003,0.021,0.005,0.033,0.009c0,0.001,0,0.001,0,0.002
	c-0.001,0.006-0.002,0.011-0.004,0.018c-0.009-0.01-0.018-0.021-0.012,0.004c-0.006,0.001-0.01-0.004-0.016,0
	c-0.008-0.012-0.01-0.023-0.001-0.03c0,0,0-0.001,0-0.001c-0.006-0.006-0.016,0.001-0.012,0.007
	c-0.016,0.007-0.001-0.021-0.021-0.019c0.009-0.01,0.018-0.003,0.027-0.01c-0.004-0.003-0.013-0.006-0.017-0.015
	c-0.041,0.021-0.021,0.069-0.052,0.051c0.007,0.017,0.018,0.019,0.03,0.01c0.007,0.011,0,0.017,0.008,0.025
	c-0.05,0.019-0.143,0.015-0.181,0.045c0.05,0.039,0.063-0.006,0.103,0.047c-0.032,0-0.008,0.071-0.042,0.069
	c0.012,0.057,0.062,0.035,0.075,0.072c0.013-0.012,0.025-0.033,0.041-0.016c0.005-0.013,0.011-0.019,0.02-0.021
	c-0.006,0.035-0.012,0.067-0.016,0.097c-0.008,0.002-0.011,0.02-0.021,0.009c0.003,0.028-0.007,0.035-0.037,0.035
	c-0.024,0,0.021,0,0.028,0.009c-0.01,0.01-0.024,0.022-0.036,0.036c0.007,0.002,0.013,0.005,0.017,0.013
	c-0.018,0.008-0.038,0.011-0.066,0.012c-0.013,0.021,0.021,0.026,0.016,0.038l-0.232,0.119c0,0-0.45,0.052-0.44-0.092
	c0.012-0.144,0.057-0.34,0.064-0.455c0.008-0.116,0.298-0.869,0.298-0.869s0.087-0.582-0.063-0.753
	c-0.151-0.167-0.439-0.489-0.439-0.489l-0.388-0.806c0,0-0.836-0.775-1.427-0.818c-0.593-0.042-1.768-0.027-2.287,0.41
	c-0.521,0.437-1.016,1.71-1.027,1.909c-0.015,0.202-0.233,1.189-0.233,1.189s-0.396,0.36-0.508,0.453
	c-0.11,0.094-0.646,1.133-0.646,1.133s-0.606,1.238-0.816,2.114c-0.212,0.877-0.856,1.808-0.484,2.445
	c0.247,0.433,0.677,0.856,1.563,0.917c0.886,0.064,1.073-0.037,1.073-0.037s0.017,1.007,0.456,1.499
	c0.325,0.361-0.131,1.066-0.131,1.066l-0.198,2.343c0,0-0.678,0.757-0.696,1.014c-0.018,0.256,0.229,0.534,0.229,0.534
	s-1.419,0.732-1.799,1.048c-0.377,0.319-0.818,0.66-1.085,0.643c-0.266-0.021-0.8-0.029-0.8-0.029l-0.669,0.211
	c0,0-0.571,0.104-0.59,0.359c-0.018,0.257,0.321,0.914,0.462,1.442c0.139,0.527,0.306,1.947,0.541,1.965
	c0.238,0.017,0.936,0.209,1.084,0.219c0.147,0.011,0.278-0.367,0.126-0.537c-0.149-0.166-0.297-0.823-0.297-0.823
	s0.114-0.768,0.122-0.883c0.008-0.114,0.323-0.78,0.323-0.78s0.716-0.438,0.862-0.427c0.146,0.01,1.23-0.172,1.483-0.384
	c0.251-0.21,0.989-0.533,0.989-0.533s0.877,0.258,1.042,0.362c0.265,0.019,0.521-0.438,0.521-0.438l0.388-0.645l0.119-0.426
	c0,0,0.146,0.041,0.207,0.231c0.063,0.191-0.083,0.556-0.083,0.556l0.038,0.289c0,0-0.071,1-0.125,1.743
	c-0.053,0.744-0.064,1.318-0.064,1.318s-0.275,0.742-0.418,0.861c-0.143,0.12-0.479,0.48-0.479,0.48s-0.292,0.541-0.168,0.68
	c0.125,0.138,1.178,0.142,1.178,0.142l1.374,0.299l0.916,0.066l0.593,0.034c0,0,0.457-0.564-0.727-0.648
	c-1.182-0.083-1.606-0.802-1.606-0.802l0.383-1.182l0.595-1.681l0.264-1.188c0,0,0.649,0.046,0.828,0.06
	c0.177,0.013,0.278-3.888,0.278-3.888L24.846,21.8l-0.34-0.859c0,0-0.664-0.76-0.417-0.743c0.146,0.01,0.249-0.136,0.336-0.348
	c0.134,0.041,0.294,0.085,0.484,0.135c0.001-0.003,0.002-0.006,0.003-0.009c0.192,0.041,0.378,0.067,0.53,0.076
	c0.099,0.007,0.205,0.019,0.309,0.032c0.002,0,0.004,0.001,0.007,0.001c0,0,0.006,0.001,0.008,0.001
	c0.323,0.047,0.638,0.128,0.725,0.145c0.083,0.013,0.304,0.163,0.426,0.25c0.02-0.014,0.041-0.018,0.062-0.026
	c0.046,0.029,0.084,0.053,0.091,0.061c0.012,0.013,0.089-0.03,0.153,0.001c0.165-0.096,0.32-0.087,0.508-0.107
	c0.003-0.021,0.037-0.03,0.037-0.03l0.267,0.031c0.011,0.004,0.023,0.004,0.033,0.008c0.074,0.01,0.13,0.02,0.13,0.02
	c0.015-0.001,0.058,0.003,0.109,0.011c0.014,0,0.02-0.001,0.028-0.001l0.225,0.027c0.052-0.023,0.012-0.079,0.023-0.112
	c-0.095-0.021-0.229-0.035-0.332-0.047c0,0-0.425-0.088-0.463-0.102c-0.04-0.01-0.021-0.051,0-0.059h0.021
	c0.148,0.012,0.365,0.038,0.365,0.038l0.01-0.001c0.014,0.002,0.022,0.003,0.032,0.004l0.801,0.255
	c0.193,0.063,0.403-0.039,0.466-0.227c0.005-0.016,0.002-0.027,0.005-0.042l2.099-1.961C31.711,18.104,31.716,17.91,31.594,17.788z
	 M29.087,12.179c0.015,0.013-0.004,0.012-0.002,0.034c-0.012-0.004-0.029-0.005-0.034-0.017
	C29.069,12.199,29.067,12.177,29.087,12.179z M29.034,12.12c0.009,0.036-0.001,0.04-0.019,0.067c0.009,0.001,0.006,0.01-0.008,0.007
	C29.02,12.163,29,12.131,29.034,12.12z M28.921,12.3c-0.004,0.049,0.023,0.071,0.036,0.105c0.001-0.011,0.007-0.015,0.016-0.019
	c-0.028,0.042-0.001,0.096-0.023,0.124c0-0.008-0.006-0.01-0.014-0.009C28.974,12.433,28.859,12.363,28.921,12.3z M28.602,11.233
	c0.005-0.003,0.028-0.017,0.028,0.002c-0.01,0.009-0.021,0.016-0.03,0.026C28.607,11.251,28.609,11.243,28.602,11.233z
	 M28.595,11.233C28.596,11.233,28.595,11.234,28.595,11.233c0.013,0.009-0.008,0.019,0.004,0.028
	c-0.008,0.007-0.011,0.017-0.022,0.019c0,0,0,0-0.001,0c0.002-0.016-0.001-0.014-0.007-0.011c-0.003,0.001-0.007,0.002-0.011,0.002
	c-0.001,0-0.001,0.001-0.002,0C28.558,11.246,28.587,11.251,28.595,11.233z M28.472,11.635c0.036,0.002,0.024-0.047,0.056-0.052
	c0.003,0.073-0.047,0.129-0.079,0.175C28.473,11.725,28.479,11.683,28.472,11.635z M28.415,11.345
	c-0.002,0.055-0.025,0.088-0.045,0.121C28.377,11.446,28.383,11.363,28.415,11.345z M28.349,11.744
	c-0.03-0.004-0.019-0.06,0.005-0.061C28.36,11.71,28.352,11.71,28.349,11.744z M28.247,11.681c0.025,0.02,0.018,0.03,0.032,0.051
	c0.009-0.021,0.004-0.021-0.003-0.042c0.009,0,0.015-0.002,0.021-0.006c0.01,0.022,0,0.03-0.004,0.055
	c-0.018-0.001-0.038-0.002-0.058-0.004C28.228,11.717,28.229,11.693,28.247,11.681z M28.201,11.614
	c0.008,0.022-0.004,0.046-0.026,0.055C28.179,11.646,28.17,11.606,28.201,11.614z M28.036,11.492c0-0.001,0.002-0.001,0.002-0.002
	c0.009-0.037,0.032-0.056,0.069-0.062c-0.001,0.02,0.047,0.035,0.024,0.057c0,0,0,0,0,0.001
	C28.126,11.467,28.081,11.525,28.036,11.492z M28.167,11.487C28.167,11.487,28.166,11.488,28.167,11.487
	c-0.002-0.006-0.007-0.005-0.013-0.002c-0.001-0.005-0.002-0.012-0.004-0.019c0,0,0-0.001,0-0.002
	c0.001,0.003,0.01,0.006,0.017,0.009c0,0,0.001,0.001,0.002,0.001C28.176,11.478,28.18,11.483,28.167,11.487z M28.148,11.465
	c-0.004-0.006-0.009-0.01-0.007-0.022C28.168,11.444,28.144,11.449,28.148,11.465z M28.039,11.466
	c-0.032,0.031-0.063-0.004-0.116,0.013c-0.007-0.009-0.006-0.026-0.003-0.043C27.985,11.419,28.007,11.474,28.039,11.466z
	 M27.896,11.251c0.013,0.015,0.047-0.017,0.073-0.015c0,0,0,0.002,0,0.002c0.004,0.005,0.014,0.031-0.003,0.032
	c0-0.028-0.005-0.002-0.015-0.001c0.008-0.015-0.021-0.028-0.019-0.016c0,0.001,0.003,0.004,0.005,0.006
	c0.003,0.003,0.004,0.005,0.005,0.009c0.002,0.005,0.004,0.01-0.006,0.012c-0.015-0.036-0.049,0.006-0.067-0.006
	c-0.001,0-0.004,0.002-0.005,0C27.891,11.286,27.873,11.246,27.896,11.251z M27.714,11.345c0.025-0.005,0.049-0.006,0.068,0.005l0,0
	c-0.009,0-0.006,0.005-0.001,0.012c-0.008,0.003-0.016,0.007-0.022,0.013c-0.026,0-0.05-0.007-0.049-0.029
	C27.711,11.345,27.712,11.346,27.714,11.345z M27.665,11.264c0.009,0.037-0.033,0.031-0.061,0.05
	C27.615,11.286,27.645,11.279,27.665,11.264z M27.522,11.462c0.029,0.012,0.033,0.008,0.036-0.011c0,0.012,0.02,0.004,0.021,0.016
	c-0.027,0.007-0.027,0.039-0.06,0.038c0.001-0.004-0.001-0.004-0.002-0.006c0-0.01,0-0.021-0.001-0.03
	C27.517,11.466,27.52,11.465,27.522,11.462z M27.4,11.457c-0.016,0-0.021,0.005-0.022,0.01c0,0,0,0,0,0
	c-0.003-0.009-0.004-0.023-0.007-0.033c0.004-0.007,0.006-0.016,0.01-0.021c-0.003-0.006-0.004-0.008-0.005-0.013
	c0.004-0.004,0.008-0.006,0.021-0.003c0,0,0,0,0.001,0c0.001,0.021-0.018,0.021-0.018,0.041c0.009,0.001,0.015,0.007,0.021,0.012
	C27.402,11.452,27.399,11.453,27.4,11.457z M27.428,11.274c-0.004,0.028,0.011,0,0.021,0.014c0.004,0.021-0.015,0.016-0.016,0.026
	c-0.022,0.005-0.02-0.009-0.036-0.008c0,0,0,0-0.001,0C27.402,11.292,27.404,11.271,27.428,11.274z M26.875,11.458L26.875,11.458
	c-0.011,0.02-0.029,0.028-0.054,0.031c0,0,0,0,0-0.001c0.008-0.006,0.013-0.012,0.008-0.022c0.013,0.003,0.019-0.007,0.026-0.012
	c0,0,0,0,0,0c0.006-0.001,0.014-0.003,0.018,0.004C26.873,11.458,26.874,11.457,26.875,11.458c0-0.003,0.002-0.005,0.004-0.007
	s0.004-0.004,0.005-0.007C26.876,11.443,26.878,11.452,26.875,11.458L26.875,11.458z M27.063,11.458
	c0.012,0.017,0.022,0.021,0.011,0.042c-0.036-0.003-0.055,0.013-0.075,0.028c-0.026,0-0.044-0.008-0.055-0.023
	c-0.011,0.017-0.021-0.016-0.03,0.004c-0.001,0.011,0.051,0.01,0.021,0.022c-0.021-0.025-0.062,0.004-0.056-0.046
	c0.034-0.008,0.052,0.02,0.078,0.02c0.031-0.035,0.009-0.054,0.049-0.065c-0.004,0.015-0.002,0.025,0.013,0.03
	C27.049,11.457,27.045,11.474,27.063,11.458z M26.986,11.311c-0.02,0.009-0.049,0.009-0.074,0.014c-0.001-0.001,0-0.001-0.001-0.002
	C26.925,11.305,26.967,11.31,26.986,11.311z M26.909,11.324l-0.002,0.002l-0.002,0.001L26.909,11.324z M27.007,11.229
	c-0.007,0.002-0.018,0.007-0.026,0.009s-0.016,0-0.017-0.011c0.006,0.001,0.015-0.003,0.023-0.005S27.003,11.219,27.007,11.229z
	 M26.907,11.216c0.003,0.017,0.02,0.018,0.007,0.001c0.009-0.002,0.015-0.008,0.029-0.005c-0.017,0.021,0.027,0.022,0.005,0.027l0,0
	c-0.007-0.001-0.008-0.007-0.013-0.008c-0.016,0.007-0.031,0.003-0.035-0.002h-0.001C26.913,11.228,26.894,11.217,26.907,11.216z
	 M26.884,11.325c-0.005-0.002-0.069,0.013-0.056-0.019C26.846,11.313,26.894,11.303,26.884,11.325z M26.68,11.509
	c-0.005,0.014-0.012,0.026-0.017,0.039c-0.019,0.002-0.035,0.007-0.04-0.005C26.642,11.522,26.66,11.514,26.68,11.509z
	 M26.585,11.589c-0.013,0.009-0.03,0.051-0.045,0.031C26.554,11.612,26.57,11.569,26.585,11.589z M26.37,11.684
	c0.006-0.001,0.005-0.005,0.001-0.012c0.053,0.004,0.042,0.03,0.078,0.019l0,0c-0.001,0.007-0.001,0.014-0.001,0.021
	C26.404,11.703,26.388,11.687,26.37,11.684C26.37,11.685,26.369,11.684,26.37,11.684z M26.376,11.915
	c0,0.003,0.002,0.003,0.002,0.005c0,0,0,0,0,0c-0.005,0.002-0.01,0.006-0.016,0.008c-0.001,0-0.001,0.001-0.002,0.001
	C26.362,11.923,26.367,11.917,26.376,11.915z M26.361,11.974c0.003,0.003,0.004,0.004,0.005,0.005
	c-0.005,0.006-0.011,0.013-0.016,0.021C26.348,11.99,26.349,11.98,26.361,11.974z M26.334,11.932
	C26.333,11.932,26.333,11.932,26.334,11.932c-0.002,0-0.004,0-0.006,0c0.006-0.006,0.003-0.021,0.02-0.02
	C26.331,11.918,26.334,11.925,26.334,11.932z M26.242,11.975c0.012,0.006,0.021,0.017,0.027,0.029
	c-0.017,0.013-0.044,0.022-0.045,0.044c-0.016-0.014-0.031-0.016-0.048-0.015c0,0,0,0-0.001,0
	C26.182,11.995,26.219,11.993,26.242,11.975z M26.145,12.03c0.003,0.004,0.009,0.004,0.015,0.005
	c-0.006,0.003-0.012,0.006-0.018,0.009C26.144,12.041,26.146,12.038,26.145,12.03z M26.1,12.042c0.012,0,0.013,0.008,0.016,0.017
	c-0.005,0.001-0.009,0.005-0.013,0.008c-0.003-0.007-0.004-0.013-0.012-0.019C26.098,12.052,26.1,12.047,26.1,12.042z
	 M26.103,12.417c0.006-0.046-0.022-0.051,0.002-0.079c0.007,0.013,0.015,0.021,0.026,0.017c0.02-0.026,0.026-0.01,0.031-0.032
	c0.006,0.002,0.011,0.004,0.017,0.006c-0.011,0.03-0.021,0.061-0.027,0.088l-0.001,0.001c-0.024,0.015-0.042,0.016-0.062,0.008
	c0.001,0.019-0.024,0-0.021,0.02c0.005,0.011,0.047-0.02,0.029,0.007c-0.031-0.011-0.048,0.036-0.071-0.009
	C26.05,12.417,26.08,12.432,26.103,12.417z M26.016,12.239c-0.014,0.022-0.041,0.036-0.059,0.057
	C25.948,12.27,25.997,12.251,26.016,12.239z M25.982,12.163c0,0.002,0.001,0.001,0,0.003c0.001-0.001,0.001-0.001,0.002-0.001
	c-0.01,0.014-0.021,0.036-0.035,0.019C25.961,12.179,25.969,12.157,25.982,12.163z M26.006,12.422
	c0.003,0.027-0.011,0.052-0.041,0.069c-0.006-0.01-0.012-0.017-0.02-0.019C25.977,12.446,25.981,12.412,26.006,12.422z
	 M25.939,12.308c-0.002,0-0.016,0.011-0.028,0.019c-0.014,0.008-0.027,0.011-0.03-0.006C25.901,12.317,25.934,12.282,25.939,12.308z
	 M25.897,12.545c0.017,0.022-0.042,0.051,0.007,0.053c-0.029,0.005-0.042,0.04-0.057,0.03
	C25.851,12.588,25.868,12.568,25.897,12.545z M25.84,12.687c0,0.001,0,0.004,0,0.007c-0.004,0.001-0.007,0.004-0.011,0.006
	C25.831,12.693,25.832,12.685,25.84,12.687z M25.632,13.177l0.003-0.005l-0.001,0.006L25.632,13.177z M26.644,19.721
	c-0.104-0.034-0.207-0.075-0.321-0.133l0.519,0.166C26.78,19.749,26.707,19.738,26.644,19.721z"/>
<path d="M28.968,11.955c-0.002,0.006,0.005,0.007,0.008,0.009c-0.001-0.008,0.011-0.015,0-0.022
	C28.983,11.95,28.98,11.956,28.968,11.955z"/>
<path d="M29.705,20.173c0.023,0.006,0.047,0.01,0.066,0.015c0.03,0.008-0.021-0.021-0.039-0.036
	C29.718,20.158,29.708,20.164,29.705,20.173z"/>
<path d="M25.348,11.332c0.002-0.01,0.013-0.011,0.017-0.021c-0.001-0.019,0.006-0.042,0.01-0.063L25.348,11.332z"/>
<path d="M63.576,7.761l0.04,0.211l0.081,2.092v8.457c0,1.294-0.026,2.257-0.081,2.887l-0.159-0.17L50.473,7.348h-0.454v8.826
	l-0.171,6.141c-0.026,0.759-0.095,1.913-0.202,3.463c0.188-0.055,0.491-0.081,0.908-0.081c0.408,0,0.709,0.026,0.904,0.081
	l-0.162-2.518l-0.04-3.13v-2.104v-3.915l0.04-2.479l7.337,7.831l4.327,4.782c0.403,0.468,0.94,1.089,1.611,1.862h0.362l-0.081-2.97
	l0.081-5.899l0.251-6.259l0.121-2.607c0.013-0.066,0.026-0.17,0.041-0.313c0.013-0.141,0.025-0.241,0.04-0.301
	c-0.323,0.054-0.54,0.079-0.654,0.079C64.459,7.84,64.074,7.814,63.576,7.761z"/>
<path d="M83.777,8.373c-1.41-0.734-3.141-1.105-5.193-1.105c-2.598,0-4.849,0.852-6.754,2.555c-1.979,1.774-2.969,4.095-2.969,6.966
	c0,0.658,0.04,1.318,0.121,1.983c0.215,0.984,0.406,1.687,0.574,2.103c0.864,1.792,2.063,3.127,3.599,4.003
	c1.532,0.876,3.33,1.313,5.389,1.313c1.953,0,3.693-0.404,5.221-1.214c1.525-0.808,2.715-1.96,3.566-3.456s1.278-3.209,1.278-5.145
	C88.608,12.753,86.998,10.086,83.777,8.373z M85.76,19.012c-0.229,1.199-0.669,2.28-1.324,3.237
	c-0.653,0.954-1.485,1.714-2.494,2.273c-1.012,0.561-2.116,0.842-3.316,0.842h0h0c-2.162,0-3.934-0.8-5.315-2.396
	c-1.263-1.437-1.893-3.371-1.893-5.808c0-1.544,0.241-2.99,0.722-4.344c0.48-1.352,1.255-2.421,2.329-3.206
	c1.262-0.931,2.73-1.4,4.408-1.4h0h0c1.075,0,2.094,0.224,3.062,0.666c0.965,0.443,1.773,1.074,2.425,1.894
	c0.638,0.827,1.072,1.703,1.303,2.631c0.233,0.929,0.35,2.007,0.35,3.226C86.012,17.453,85.928,18.248,85.76,19.012z"/>
<path d="M80.87,3.592c0.153-0.12,0.279-0.222,0.376-0.306c0.1-0.083,0.174-0.156,0.227-0.216c0.055-0.062,0.091-0.116,0.106-0.166
	c0.017-0.051,0.025-0.104,0.025-0.156s-0.005-0.118-0.017-0.191c-0.009-0.072-0.014-0.167-0.014-0.281
	c-0.143-0.354-0.5-0.533-1.078-0.533c-0.121,0.02-0.234,0.068-0.347,0.146c-0.111,0.077-0.221,0.171-0.332,0.281
	c-0.111,0.111-0.221,0.229-0.332,0.357s-0.228,0.252-0.348,0.373l-3.342,3.292h0.946L80.87,3.592z"/>
<path d="M110.903,18.931l-1.279-11.463h-0.32c-0.315,0.576-0.734,1.323-1.254,2.239c-0.521,0.914-0.861,1.52-1.021,1.809
	l-3.463,6.391c-0.302,0.577-0.612,1.147-0.932,1.715c-0.318,0.568-0.691,1.244-1.121,2.03c-1.403-2.35-2.753-4.75-4.047-7.208
	l-3.583-6.975H93.43c-0.073,0.645-0.143,1.227-0.202,1.747c-0.062,0.519-0.116,0.954-0.17,1.304l-1.279,9.57l-0.907,5.436v0.252
	c0.188-0.026,0.465-0.041,0.826-0.041c0.135,0,0.313,0.007,0.533,0.021c0.221,0.014,0.387,0.021,0.494,0.021v-0.574l0.121-2.636
	l1.157-10.306c0.738,1.416,1.418,2.714,2.043,3.899c0.623,1.185,1.221,2.336,1.792,3.452c0.568,1.118,1.063,2.116,1.479,2.995
	l1.449,2.969h0.281c0.342-0.712,0.68-1.419,1.013-2.124c0.332-0.705,0.601-1.261,0.811-1.672l1.397-2.726l3.715-6.794
	c0.162,1.3,0.326,2.606,0.494,3.915l0.825,9.602c0.274-0.054,0.715-0.081,1.317-0.081c0.282,0,0.665,0.027,1.147,0.081
	c-0.096-0.771-0.229-1.822-0.406-3.155C111.184,21.29,111.031,20.06,110.903,18.931z"/>
<path d="M122.329,7.387h-0.533l-8.245,18.39c0.444-0.053,0.771-0.081,0.986-0.081c0.415,0,0.719,0.028,0.905,0.081
	c0.437-1.396,1.303-3.743,2.598-7.047l3.555-0.09l3.171,0.09l1.275,3.132l1.2,3.13l0.24,0.785c0.302-0.053,0.786-0.081,1.45-0.081
	c0.274,0,0.715,0.028,1.318,0.081l-0.453-0.946L122.329,7.387z M121.713,17.613h-3.171l2.879-6.763l2.931,6.763H121.713z"/>
<path d="M146.987,9.41c-0.846-0.704-1.77-1.163-2.768-1.374c-1.002-0.211-2.208-0.315-3.623-0.315h-1.24h-5.273h-0.665l0.081,3.21
	l-0.081,12.25l-0.119,2.596c0.87-0.054,1.532-0.081,1.981-0.081l3.251,0.04c1.248,0,2.29-0.032,3.124-0.099
	c0.837-0.067,1.676-0.244,2.518-0.529c0.841-0.286,1.615-0.735,2.319-1.354c1.033-0.873,1.885-1.999,2.557-3.382
	c0.516-1.188,0.772-2.643,0.772-4.368c0-1.33-0.231-2.563-0.697-3.704S147.946,10.195,146.987,9.41z M147.123,18.576
	c-0.151,0.828-0.386,1.583-0.72,2.249c-0.336,0.778-0.725,1.407-1.167,1.882c-0.443,0.479-1.041,0.897-1.792,1.259
	c-0.565,0.282-1.197,0.486-1.902,0.613c-0.791,0.115-1.795,0.173-3.009,0.173c-0.396,0-0.889-0.025-1.479-0.077
	c-0.591-0.049-1.046-0.079-1.36-0.096l-0.091-3.05v-0.001v-7.216v-0.001c0-1.053,0.056-2.864,0.171-5.435
	c0.354-0.014,0.87-0.037,1.54-0.074c0.671-0.037,1.242-0.058,1.711-0.058c1.45,0,2.638,0.091,3.563,0.273
	c0.928,0.181,1.803,0.613,2.627,1.297c0.51,0.43,0.923,0.988,1.233,1.67c0.313,0.688,0.537,1.413,0.669,2.186
	c0.135,0.772,0.202,1.506,0.202,2.204C147.319,17.166,147.247,17.895,147.123,18.576z"/>
<path d="M163.112,24.205c-0.846,0.145-1.646,0.212-2.396,0.212c-1.571,0.081-3.15,0.12-4.739,0.12
	c-0.027-0.521-0.041-1.292-0.041-2.304v-3.301v-2.104h1.479h1.157l1.438,0.04c0.585,0,1.37,0.058,2.355,0.171
	c-0.081-0.503-0.122-0.765-0.122-0.785c0-0.02,0.041-0.281,0.122-0.785c-0.262,0.014-0.65,0.034-1.167,0.063
	c-0.517,0.025-0.914,0.045-1.188,0.058l-1.397,0.082h-2.677V14.15v-1.156l0.122-3.956h1.94l2.637,0.08
	c0.396,0.022,0.821,0.051,1.274,0.091s0.81,0.067,1.072,0.081c-0.055-0.168-0.081-0.43-0.081-0.786c0-0.105,0.013-0.245,0.041-0.41
	c0.025-0.17,0.04-0.295,0.04-0.374c-1.208,0.056-2.114,0.079-2.717,0.079h-3.796l-2.849-0.079c0.087,1.938,0.131,3.065,0.131,3.382
	l0.04,2.305l-0.04,9.03l-0.17,3.299c0.255,0,0.627-0.007,1.117-0.02c0.488-0.014,0.845-0.021,1.066-0.021
	c0.261,0,0.649-0.006,1.167-0.021c0.517-0.013,0.9-0.021,1.146-0.021c0.748,0,1.83,0.027,3.252,0.081l1.822,0.041
	C163.123,25.421,163.112,24.896,163.112,24.205z"/>
<polygon points="50.768,33.472 52.564,33.472 52.564,32.977 50.768,32.977 50.768,31.51 52.673,31.51 52.673,31.009 50.163,31.009 
	50.163,35.647 52.776,35.647 52.776,35.145 50.768,35.145 "/>
<path d="M61.829,33.019c-0.64-0.248-0.922-0.461-0.922-0.896c0-0.314,0.241-0.693,0.874-0.693c0.419,0,0.729,0.131,0.874,0.221
	l0.165-0.49c-0.199-0.117-0.55-0.226-1.019-0.226c-0.901,0-1.5,0.538-1.5,1.259c0,0.646,0.469,1.046,1.225,1.322
	c0.627,0.231,0.875,0.486,0.875,0.915c0,0.467-0.357,0.791-0.97,0.791c-0.414,0-0.799-0.131-1.066-0.305l-0.159,0.503
	c0.248,0.165,0.737,0.304,1.185,0.304c1.094,0,1.617-0.626,1.617-1.343C63.006,33.699,62.613,33.321,61.829,33.019z"/>
<polygon points="70.186,31.518 71.597,31.518 71.597,35.647 72.202,35.647 72.202,31.518 73.621,31.518 73.621,31.009 
	70.186,31.009 "/>
<path d="M83.828,33.763c0,1.018-0.447,1.471-1.128,1.471c-0.619,0-1.081-0.439-1.081-1.471v-2.755h-0.604v2.731
	c0,1.445,0.715,1.983,1.665,1.983c1.005,0,1.755-0.58,1.755-2.003v-2.713h-0.606V33.763z"/>
<path d="M93.631,30.974c-0.474,0-0.907,0.042-1.272,0.104v4.555c0.303,0.033,0.654,0.057,1.088,0.057
	c0.902,0,1.617-0.236,2.057-0.668c0.428-0.429,0.668-1.048,0.668-1.804c0-0.752-0.24-1.287-0.659-1.666
	C95.104,31.18,94.491,30.974,93.631,30.974z M95.538,33.24c0,0.939-0.387,1.575-1.123,1.835c-0.246,0.086-0.53,0.131-0.853,0.131
	c-0.233,0-0.453-0.006-0.605-0.026V31.51c0.159-0.034,0.393-0.061,0.703-0.061c0.316,0,0.592,0.043,0.828,0.126
	C95.195,31.822,95.543,32.418,95.538,33.24C95.538,33.239,95.538,33.239,95.538,33.24z"/>
<rect x="103.818" y="31.009" width="0.605" height="4.639"/>
<path d="M114.226,30.927c-1.238,0-2.147,0.964-2.147,2.437c0,1.404,0.854,2.361,2.086,2.361c1.185,0,2.154-0.854,2.154-2.442
	C116.318,31.897,115.499,30.927,114.226,30.927z M115.684,33.308L115.684,33.308c0,1.054-0.536,1.927-1.485,1.927
	s-1.487-0.888-1.487-1.887c0,0,0,0,0-0.001c0-0.126,0.008-0.25,0.023-0.372c0,0,0,0,0-0.001c0.108-0.854,0.598-1.56,1.471-1.56
	C115.203,31.415,115.684,32.377,115.684,33.308L115.684,33.308z"/>
</svg>
